<?xml version="1.0" encoding="utf-8"?>
<!-- Generator: Adobe Illustrator 24.2.1, SVG Export Plug-In . SVG Version: 6.00 Build 0)  -->
<svg version="1.1" id="Layer_1" xmlns="http://www.w3.org/2000/svg" xmlns:xlink="http://www.w3.org/1999/xlink" x="0px" y="0px"
	 viewBox="0 0 28 28" style="enable-background:new 0 0 28 28;" xml:space="preserve">
<style type="text/css">
	.st0{fill:#AAC738;}
</style>
<g>
	<path class="st0" d="M24.81,4.97c-2.03-2.46-4.85-4.17-7.96-4.81c-0.41-0.08-0.81,0.18-0.89,0.59c-0.08,0.41,0.18,0.81,0.59,0.89
		c2.77,0.57,5.29,2.1,7.1,4.29c1.83,2.23,2.84,5.04,2.84,7.93c0,2.21-0.6,4.4-1.73,6.32c-0.21,0.36-0.09,0.82,0.27,1.04
		c0.12,0.07,0.25,0.1,0.38,0.1c0.26,0,0.51-0.13,0.65-0.37c1.27-2.15,1.94-4.6,1.94-7.09C28,10.62,26.87,7.46,24.81,4.97z"/>
	<path class="st0" d="M21.47,23.85c-2.18,1.64-4.77,2.5-7.47,2.5c-2.7,0-5.29-0.86-7.47-2.5C6.2,23.6,5.72,23.67,5.47,24
		c-0.25,0.33-0.18,0.81,0.15,1.06c2.45,1.83,5.34,2.8,8.38,2.8c3.04,0,5.93-0.97,8.38-2.8c0.33-0.25,0.4-0.72,0.15-1.06
		C22.28,23.67,21.81,23.6,21.47,23.85z"/>
	<path class="st0" d="M11.46,1.64c0.41-0.08,0.67-0.49,0.59-0.89c-0.08-0.41-0.49-0.67-0.89-0.59C8.04,0.8,5.22,2.51,3.19,4.97
		C1.13,7.46,0,10.62,0,13.86c0,2.48,0.67,4.93,1.94,7.09c0.14,0.24,0.39,0.37,0.65,0.37c0.13,0,0.26-0.03,0.38-0.1
		c0.36-0.21,0.48-0.68,0.27-1.04c-1.13-1.92-1.73-4.11-1.73-6.32c0-2.89,1.01-5.71,2.84-7.93C6.17,3.73,8.69,2.21,11.46,1.64z"/>
	<path class="st0" d="M21.96,10.75h-0.52c0,0,0,0,0,0c0-4.11-3.34-7.45-7.45-7.45s-7.45,3.34-7.45,7.45c0,0,0,0,0,0H6.04
		c-0.55,0-1,0.45-1,1v7.83c0,1.89,4.37,3.76,8.97,3.76s8.97-1.95,8.97-3.76v-7.83C22.97,11.2,22.51,10.75,21.96,10.75z M19.93,10.75
		H8.07c0,0,0,0,0,0c0-3.27,2.66-5.93,5.93-5.93S19.93,7.47,19.93,10.75C19.93,10.75,19.93,10.75,19.93,10.75z"/>
</g>
</svg>
